<svg xmlns="http://www.w3.org/2000/svg" version="1.1" xmlns:xlink="http://www.w3.org/1999/xlink" width="20" height="20" x="0" y="0" viewBox="0 0 64 64" style="enable-background:new 0 0 512 512" xml:space="preserve" fill-rule="evenodd" class=""><g><path d="M40.532 31.224a2.001 2.001 0 0 0-2.879-1.612s-4.198 2.076-7.284 4.33c-1.543 1.127-2.803 2.339-3.38 3.37-1.937 3.458-.7 7.84 2.762 9.779s7.846.706 9.784-2.753c.577-1.03.953-2.737 1.108-4.642.31-3.808-.111-8.472-.111-8.472zm-3.804 3.415c.049 1.428.057 3.158-.07 4.729-.101 1.228-.24 2.351-.613 3.016a3.19 3.19 0 0 1-5.566-3.118c.372-.664 1.258-1.37 2.252-2.097 1.273-.93 2.753-1.826 3.997-2.53z" fill="#fff" opacity="1" data-original="#000000" class=""></path><path fill="#fff" d="M6 45h5a2 2 0 0 0 0-4H8.082a23.895 23.895 0 0 1 5.595-13.494l2.06 2.059c.78.78 2.047.78 2.828 0 .78-.781.78-2.048 0-2.828l-2.059-2.06A23.894 23.894 0 0 1 30 19.082V22a2 2 0 0 0 4 0v-2.918a23.895 23.895 0 0 1 13.494 5.595l-2.059 2.06c-.78.78-.78 2.047 0 2.828.781.78 2.048.78 2.828 0l2.06-2.059A23.894 23.894 0 0 1 55.918 41H53a2 2 0 0 0 0 4h5a2 2 0 0 0 2-2c0-15.454-12.546-28-28-28S4 27.546 4 43a2 2 0 0 0 2 2z" opacity="1" data-original="#080000" class=""></path></g></svg>