<svg xmlns="http://www.w3.org/2000/svg" version="1.1" xmlns:xlink="http://www.w3.org/1999/xlink" width="20" height="20" x="0" y="0" viewBox="0 0 512 512" style="enable-background:new 0 0 512 512" xml:space="preserve" class=""><g><path d="M482 245.242v-60.363c0-29.656-23.597-53.891-53-54.949V92.879c0-19.299-15.701-35-35-35h-96.358l-12.443-34.587c-3.173-8.82-9.595-15.868-18.083-19.845-8.488-3.978-18.014-4.402-26.821-1.196L65.44 65.892c-8.798 3.202-15.817 9.641-19.765 18.131s-4.349 18.007-1.128 26.799l7.025 19.175C22.837 131.774 0 155.704 0 184.879v272c0 30.327 24.673 55 55 55h372c30.327 0 55-24.673 55-55v-62.363c16.938-2.434 30-17.036 30-34.637v-80c0-17.601-13.062-32.203-30-34.637zm0 114.637c0 2.757-2.243 5-5 5h-80c-24.813 0-45-20.187-45-45s20.187-45 45-45h80c2.757 0 5 2.243 5 5zM72.716 100.502a4.978 4.978 0 0 1 .161-3.829 4.98 4.98 0 0 1 2.824-2.59l174.854-63.641c1.698-.617 3.129-.158 3.832.171s1.972 1.135 2.583 2.835l8.79 24.432H259c-19.299 0-35 15.701-35 35v37H83.479zM399 92.879v37H254v-37c0-2.757 2.243-5 5-5h135c2.757 0 5 2.243 5 5zm28 389H55c-13.785 0-25-11.215-25-25v-272c0-13.785 11.215-25 25-25h372c13.785 0 25 11.215 25 25v60h-55c-41.355 0-75 33.645-75 75s33.645 75 75 75h55v62c0 13.785-11.215 25-25 25z" fill="#ffffff" opacity="1" data-original="#000000" class=""></path><circle cx="397" cy="319.879" r="15" fill="#ffffff" opacity="1" data-original="#000000" class=""></circle></g></svg>