<svg xmlns="http://www.w3.org/2000/svg" version="1.1" xmlns:xlink="http://www.w3.org/1999/xlink" width="20" height="20" x="0" y="0" viewBox="0 0 512 512" style="enable-background:new 0 0 512 512" xml:space="preserve" class=""><g><circle cx="447" cy="467" r="30" style="stroke-width:30;stroke-linecap:round;stroke-linejoin:round;stroke-miterlimit:10;" fill="none" stroke="#ffffff" stroke-width="30" stroke-linecap="round" stroke-linejoin="round" stroke-miterlimit="10" data-original="#000000" opacity="1" class=""></circle><circle cx="125" cy="467" r="30" style="stroke-width:30;stroke-linecap:round;stroke-linejoin:round;stroke-miterlimit:10;" fill="none" stroke="#ffffff" stroke-width="30" stroke-linecap="round" stroke-linejoin="round" stroke-miterlimit="10" data-original="#000000" opacity="1" class=""></circle><path d="M467 383H116a30 30 0 0 1-21.213-8.787l-71-71c-11.716-11.716-11.716-30.711 0-42.427 11.715-11.716 30.711-11.716 42.426 0L128.427 323H467c16.568 0 30 13.432 30 30s-13.432 30-30 30zM125 436v-50M447 436v-50M15 15h482M196 75c0 33.141 26.859 60 60 60s60-26.859 60-60M291.712 253v-8.154a34.848 34.848 0 0 0-9.342-23.745h0A34.846 34.846 0 0 0 256.867 210h-1.732a34.844 34.844 0 0 0-25.503 11.101h0a34.846 34.846 0 0 0-9.342 23.745V253M256 139v68M366 75H146l-30-60h280z" style="stroke-width:30;stroke-linecap:round;stroke-linejoin:round;stroke-miterlimit:10;" fill="none" stroke="#ffffff" stroke-width="30" stroke-linecap="round" stroke-linejoin="round" stroke-miterlimit="10" data-original="#000000" opacity="1" class=""></path></g></svg>